<svg id="Layer_1" data-name="Layer 1" xmlns="http://www.w3.org/2000/svg" viewBox="0 0 500 500"><title>logo1</title><polygon points="56.13 372.89 214.8 316.01 435 391.22 208.54 287.83 56.13 372.89" fill="#b87332"/><rect x="194.12" y="345.99" width="17.57" height="15.37" fill="#a31f30"/><rect x="194.12" y="367.91" width="17.57" height="15.37" fill="#a31f30"/><rect x="219.17" y="367.91" width="17.57" height="15.37" fill="#a31f30"/><rect x="219.17" y="345.99" width="17.57" height="15.37" fill="#a31f30"/><polygon points="195.03 272.72 164.79 288.75 164.79 40.54 195.03 23.11 195.03 272.72" fill="#7b7d80"/><polygon points="151.79 295.78 121.55 311.82 121.55 172.05 151.79 154.61 151.79 295.78" fill="#7b7d80"/><polygon points="108.55 321.86 78.31 337.89 78.31 252.34 108.55 234.91 108.55 321.86" fill="#7b7d80"/><polygon points="414.74 91.46 223.56 54.63 224.31 17.06 415.34 61.89 414.74 91.46" fill="#1f273e"/><polygon points="413.69 143.65 222.51 106.82 223.26 69.26 414.29 114.09 413.69 143.65" fill="#1f273e"/><polygon points="412.64 195.85 221.46 159.02 222.21 121.45 413.24 166.28 412.64 195.85" fill="#1f273e"/><polygon points="411.65 245.14 220.47 208.31 221.22 170.75 412.25 215.58 411.65 245.14" fill="#1f273e"/><polygon points="410.6 297.34 411.2 267.77 220.17 222.95 219.64 249.55 265.28 269.34 410.6 297.34" fill="#1f273e"/><polygon points="410.15 319.97 348.85 305.58 409.9 332.06 410.15 319.97" fill="#1f273e"/><path d="M69.74,467.36a6.23,6.23,0,0,1-1,1.77,5.32,5.32,0,0,1-1.57,1.25,4,4,0,0,1-2,.49,5.58,5.58,0,0,1-1.37-.19.12.12,0,0,1-.06-.12c0-.06,0-.09.09-.07l.25,0h.29a4.24,4.24,0,0,0,1.64-.29,3.37,3.37,0,0,0,1.24-.84,3.79,3.79,0,0,0,.77-1.29,4.82,4.82,0,0,0,.27-1.64,5.49,5.49,0,0,0-.24-1.6,4.82,4.82,0,0,0-.73-1.45,4,4,0,0,0-1.18-1,3.12,3.12,0,0,0-1.56-.4,4.41,4.41,0,0,0-1.7.38v14a2.18,2.18,0,0,0,.48,1.58,2.25,2.25,0,0,0,1.59.53s.07,0,.07.1,0,.09-.07.09H60.26l-1.08,0s-.07,0-.08-.08a.09.09,0,0,1,.06-.11,3.2,3.2,0,0,0,.92-.26,1,1,0,0,0,.47-.43,1.6,1.6,0,0,0,.16-.66c0-.26,0-.58,0-.95V463.11a1.22,1.22,0,0,0-.18-.65,2,2,0,0,0-.44-.52,2.3,2.3,0,0,0-.58-.37,3.11,3.11,0,0,0-.64-.23.07.07,0,0,1-.06-.09.08.08,0,0,1,.08-.07l1.84.07,1.81,0h2.91a9.32,9.32,0,0,1,1.92.19,3.7,3.7,0,0,1,1.46.66,3.08,3.08,0,0,1,.93,1.24,5.12,5.12,0,0,1,.33,2A5.65,5.65,0,0,1,69.74,467.36Z"/><path d="M92,478.88a4.67,4.67,0,0,1-1.19.14,3.84,3.84,0,0,1-1.69-.37,5.73,5.73,0,0,1-1.43-1,9.7,9.7,0,0,1-1.23-1.32c-.37-.5-.73-1-1-1.47s-.71-1-1.12-1.53A8.89,8.89,0,0,0,83.09,472a2,2,0,0,0-1.08-.48,8.33,8.33,0,0,0-1.22-.08h-.52a4.35,4.35,0,0,0-.51,0V476a2.42,2.42,0,0,0,.57,1.63,2.25,2.25,0,0,0,1.52.77v.18l-1.46-.11c-.49,0-1-.05-1.46-.05s-1,0-1.43.06l-1.44.15s-.08,0-.09-.06,0-.09,0-.13a2.81,2.81,0,0,0,1.14-1,2.42,2.42,0,0,0,.46-1.4V463.39a1.84,1.84,0,0,0-.56-1.32,2.79,2.79,0,0,0-1.28-.75s-.07-.05-.06-.09,0-.08.08-.08h.45l.71,0c.23,0,.46,0,.68,0a13.31,13.31,0,0,0,1.41.07c.5,0,1,0,1.53-.07l.76,0,.77,0a7.71,7.71,0,0,1,1.92.24,5.27,5.27,0,0,1,1.69.74,3.82,3.82,0,0,1,1.18,1.31,3.91,3.91,0,0,1,.45,1.95,4.79,4.79,0,0,1-.24,1.49,6.87,6.87,0,0,1-.62,1.42,8.13,8.13,0,0,1-.89,1.28c-.34.4-.68.77-1,1.1.21.25.47.58.77,1s.6.83.92,1.25c.47.64,1,1.3,1.48,2a16,16,0,0,0,1.63,1.81A7.54,7.54,0,0,0,91.17,478a3.46,3.46,0,0,0,1.94.35l0,.18A5.17,5.17,0,0,1,92,478.88Zm-7.15-14a4.71,4.71,0,0,0-.73-1.53A3.9,3.9,0,0,0,83,462.28a3.16,3.16,0,0,0-1.65-.42,5.16,5.16,0,0,0-.79.06,3.41,3.41,0,0,0-.76.2v8a7.91,7.91,0,0,0,1.09.13c.37,0,.73,0,1.07,0a2.85,2.85,0,0,0,2.49-1,4.53,4.53,0,0,0,.71-2.68A5.82,5.82,0,0,0,84.89,464.92Z"/><path d="M112.16,473.91a8.61,8.61,0,0,1-2,2.7,9,9,0,0,1-2.89,1.78,9.59,9.59,0,0,1-3.45.63,7.16,7.16,0,0,1-2-.32,10,10,0,0,1-2.07-.92,12.63,12.63,0,0,1-1.92-1.39,11.19,11.19,0,0,1-1.59-1.72,8.06,8.06,0,0,1-1.1-1.92,5.5,5.5,0,0,1-.4-2.05,15.86,15.86,0,0,1,.43-4,7.12,7.12,0,0,1,1.38-2.84A7.32,7.32,0,0,1,99,462a16.78,16.78,0,0,1,3.81-1.21.58.58,0,0,1,.19,0h.21a9.66,9.66,0,0,1,3.81.75,9.54,9.54,0,0,1,5.11,5.16,9.89,9.89,0,0,1,.74,3.82A7.93,7.93,0,0,1,112.16,473.91Zm-1.77-6.59a9.5,9.5,0,0,0-1.38-2.8,7,7,0,0,0-2.25-2,6,6,0,0,0-3.08-.78,6.73,6.73,0,0,0-2.91.6,6.29,6.29,0,0,0-2.14,1.62,7,7,0,0,0-1.32,2.4,9.36,9.36,0,0,0-.45,2.93,10.77,10.77,0,0,0,.49,3.15,9.1,9.1,0,0,0,1.41,2.82,7.51,7.51,0,0,0,2.28,2,6,6,0,0,0,3.09.79,6.25,6.25,0,0,0,5-2.29,7.31,7.31,0,0,0,1.29-2.42,9.62,9.62,0,0,0,.44-2.91A10.78,10.78,0,0,0,110.39,467.32Z"/><path d="M127.37,467.36a6,6,0,0,1-1,1.77,5.41,5.41,0,0,1-1.56,1.25,4.1,4.1,0,0,1-2,.49,5.5,5.5,0,0,1-1.36-.19.1.1,0,0,1-.06-.12c0-.06,0-.09.08-.07l.26,0H122a4.33,4.33,0,0,0,1.65-.29,3.41,3.41,0,0,0,1.23-.84,3.66,3.66,0,0,0,.78-1.29,4.82,4.82,0,0,0,.27-1.64,5.51,5.51,0,0,0-.25-1.6,4.6,4.6,0,0,0-.73-1.45,3.91,3.91,0,0,0-1.17-1,3.19,3.19,0,0,0-1.57-.4,4.37,4.37,0,0,0-1.69.38v14A2.23,2.23,0,0,0,121,478a2.27,2.27,0,0,0,1.6.53s.07,0,.07.1,0,.09-.07.09H117.9l-1.08,0a.07.07,0,0,1-.08-.08.09.09,0,0,1,.05-.11,3.11,3.11,0,0,0,.92-.26,1,1,0,0,0,.47-.43,1.6,1.6,0,0,0,.17-.66c0-.26,0-.58,0-.95V463.11a1.22,1.22,0,0,0-.18-.65,2,2,0,0,0-.43-.52,2.36,2.36,0,0,0-.59-.37,3,3,0,0,0-.63-.23.07.07,0,0,1-.06-.09c0-.05,0-.07.08-.07l1.83.07,1.81,0h2.92a9.46,9.46,0,0,1,1.92.19,3.65,3.65,0,0,1,1.45.66,3.08,3.08,0,0,1,.93,1.24,5.12,5.12,0,0,1,.33,2A5.44,5.44,0,0,1,127.37,467.36Z"/><path d="M143.51,476.78l-.18,1.14v0l-.07.56a.08.08,0,0,1-.09.09s0,0-.07.05l-.36.07h-1.5l-1.51,0h-1.48l-1.48,0h-1.5c-.5,0-1,0-1.51.05v-.19a1.63,1.63,0,0,0,.83-.22,1.38,1.38,0,0,0,.47-.52,2.23,2.23,0,0,0,.22-.73,5.69,5.69,0,0,0,.06-.83V462.89a1.64,1.64,0,0,0-.08-.55A.85.85,0,0,0,135,462a1.09,1.09,0,0,0-.32-.17,2.9,2.9,0,0,0-.38-.11,2.42,2.42,0,0,1-.46-.13,1.69,1.69,0,0,1-.48-.27.07.07,0,0,1,0-.09s0-.05.07-.05h1.44l1.86,0h3.53l1.3,0c.38,0,.71,0,1-.07a1.82,1.82,0,0,0,.56-.12c.09-.06.14,0,.14.07-.05.44-.12.88-.2,1.32s-.18.86-.27,1.27a1.93,1.93,0,0,1-.05.2c0,.06,0,.12-.05.2a.08.08,0,0,1-.1.06c-.06,0-.08,0-.08-.08a1.76,1.76,0,0,0-.78-1.52,3.69,3.69,0,0,0-1.74-.36h-2.52v6.65h3.7a1.14,1.14,0,0,0,.41-.11l.5-.22a3.08,3.08,0,0,1,.38-.16,2.65,2.65,0,0,1,.37-.12q.12,0,.12.09l-.09.76c0,.25-.06.49-.1.72s-.09.62-.13.91-.07.58-.1.88a.08.08,0,0,1-.06.09.09.09,0,0,1-.11,0,.84.84,0,0,1-.18-.29A2.29,2.29,0,0,1,142,471a2.65,2.65,0,0,0-.12-.37,1.08,1.08,0,0,0-.26-.38,1,1,0,0,0-.57-.26,8.53,8.53,0,0,0-.94-.13l-1,0h-1.67v6.53a2.3,2.3,0,0,0,.59.69,3.88,3.88,0,0,0,.76.47,4.12,4.12,0,0,0,.86.28,4.43,4.43,0,0,0,.87.09,3.12,3.12,0,0,0,1.91-.59,2.7,2.7,0,0,0,1.07-1.67l.17,0C143.63,476,143.56,476.39,143.51,476.78Z"/><path d="M165.63,478.88a4.67,4.67,0,0,1-1.19.14,3.84,3.84,0,0,1-1.69-.37,5.92,5.92,0,0,1-1.43-1,9,9,0,0,1-1.22-1.32c-.38-.5-.73-1-1.06-1.47s-.7-1-1.12-1.53a9.43,9.43,0,0,0-1.23-1.32,2,2,0,0,0-1.09-.48,8.24,8.24,0,0,0-1.22-.08h-.52a4.35,4.35,0,0,0-.51,0V476a2.42,2.42,0,0,0,.57,1.63,2.25,2.25,0,0,0,1.52.77v.18l-1.46-.11c-.48,0-1-.05-1.46-.05s-1,0-1.43.06l-1.43.15s-.08,0-.1-.06a.12.12,0,0,1,.05-.13,2.81,2.81,0,0,0,1.14-1,2.42,2.42,0,0,0,.46-1.4V463.39a1.87,1.87,0,0,0-.55-1.32,2.82,2.82,0,0,0-1.29-.75.1.1,0,0,1-.06-.09.09.09,0,0,1,.09-.08h.44l.71,0c.23,0,.46,0,.68,0a13.31,13.31,0,0,0,1.41.07c.5,0,1,0,1.53-.07l.76,0,.77,0a7.79,7.79,0,0,1,1.93.24,5.31,5.31,0,0,1,1.68.74,3.72,3.72,0,0,1,1.18,1.31,3.91,3.91,0,0,1,.45,1.95,5.09,5.09,0,0,1-.23,1.49,7.49,7.49,0,0,1-.63,1.42,8.13,8.13,0,0,1-.89,1.28c-.34.4-.68.77-1,1.1.22.25.47.58.77,1l.92,1.25c.47.64,1,1.3,1.48,2A15.11,15.11,0,0,0,163,476.7a7.3,7.3,0,0,0,1.78,1.25,3.46,3.46,0,0,0,1.94.35l.05.18A5,5,0,0,1,165.63,478.88Zm-7.15-14a4.9,4.9,0,0,0-.72-1.53,4.06,4.06,0,0,0-1.19-1.11,3.16,3.16,0,0,0-1.65-.42,5.25,5.25,0,0,0-.79.06,3.56,3.56,0,0,0-.76.2v8a8.1,8.1,0,0,0,1.09.13c.37,0,.73,0,1.07,0a2.87,2.87,0,0,0,2.5-1,4.53,4.53,0,0,0,.7-2.68A5.82,5.82,0,0,0,158.48,464.92Z"/><path d="M180.75,462.86a6.06,6.06,0,0,1-.21,1.42.1.1,0,0,1-.1.07.08.08,0,0,1-.09-.07,2.52,2.52,0,0,0-.37-.95,1.81,1.81,0,0,0-.62-.58,2.51,2.51,0,0,0-.85-.29,6.17,6.17,0,0,0-1-.08h-2.85v13.73a2.29,2.29,0,0,0,.6,1.6,2.52,2.52,0,0,0,1.49.8.08.08,0,0,1,.06.1c0,.06,0,.09-.08.09-.55-.05-1.1-.09-1.66-.12s-1.11-.05-1.68-.05c-.41,0-.81,0-1.21,0l-1.21.08c-.05,0-.07,0-.08-.08a.09.09,0,0,1,.06-.11,4.3,4.3,0,0,0,.88-.26,1,1,0,0,0,.47-.38,1.37,1.37,0,0,0,.19-.59q0-.37,0-.93V462.4h-3.88a1.94,1.94,0,0,0-1.33.53,3.35,3.35,0,0,0-.85,1.19.15.15,0,0,1-.11.06.08.08,0,0,1-.06-.09,2.18,2.18,0,0,1-.05-.42,3.57,3.57,0,0,1,.12-.92l.26-.91c.05-.16.09-.31.14-.46a4.16,4.16,0,0,0,.12-.44c0-.09.08-.11.14,0a2.71,2.71,0,0,0,1,.38,5.93,5.93,0,0,0,1.09.09h10.2a1.62,1.62,0,0,0,.41-.06l.41-.11.27-.05.32,0c.05,0,.07,0,.07.09v.19C180.77,461.84,180.76,462.33,180.75,462.86Z"/><path d="M199.83,462.34a20.29,20.29,0,0,0-1.54,1.61c-.54.63-1.08,1.31-1.61,2s-1,1.44-1.44,2.14a17,17,0,0,0-1,1.95,3.76,3.76,0,0,0-.4,1.42v5.22a1.14,1.14,0,0,0,.22.67,2.17,2.17,0,0,0,.57.51,3.94,3.94,0,0,0,.72.34c.25.08.48.15.7.2a.08.08,0,0,1,.06.1c0,.06,0,.08-.08.08-1,0-1.93-.07-2.87-.07-.5,0-1,0-1.46,0s-1,0-1.46.07c0,0-.07,0-.08-.08a.09.09,0,0,1,.06-.11,2.73,2.73,0,0,0,1-.68,1.51,1.51,0,0,0,.46-1.08v-4.85a3.68,3.68,0,0,0-.42-1.35,21.28,21.28,0,0,0-1.1-2c-.44-.74-.94-1.5-1.49-2.29s-1.09-1.52-1.63-2.19a21,21,0,0,0-1.51-1.69,3.52,3.52,0,0,0-1.11-.84.08.08,0,0,1-.06-.1c0-.06,0-.08.08-.08l.45,0,.44.05.87.08c.3,0,.6,0,.9,0s.69,0,1,0l1-.08c.05,0,.08,0,.08.06a.1.1,0,0,1,0,.1,3.84,3.84,0,0,0-.34.28.48.48,0,0,0-.18.38,2.23,2.23,0,0,0,.27.71c.18.36.41.79.68,1.29s.59,1,.93,1.61.68,1.13,1,1.67.62,1,.9,1.47l.62,1s0,0,0-.05a.05.05,0,0,0,0,0h0c.17-.37.36-.77.57-1.18a12.41,12.41,0,0,1,.75-1.33c.08-.14.18-.31.32-.51l.43-.64c.2-.33.43-.68.68-1s.48-.72.68-1.07a9.6,9.6,0,0,0,.52-1,1.9,1.9,0,0,0,.21-.78.69.69,0,0,0-.2-.52,1.25,1.25,0,0,0-.45-.31c-.05,0-.07-.05-.05-.11s.05-.09.09-.07a6.27,6.27,0,0,0,1.06.13h1.08c.39,0,.77,0,1.14-.05l1.14-.09,0,.18A4.3,4.3,0,0,0,199.83,462.34Z"/><path d="M242,477.25h-2.55l-2.54-.06q-.13,0-.09-.12c0-.05,0-.09,0-.14a1.21,1.21,0,0,0,0-.14c.06-.19.13-.38.19-.56a1.64,1.64,0,0,0,.09-.53c0-1.19,0-2.42-.17-3.68s-.25-2.48-.39-3.66v0c-.09-.73-.18-1.42-.25-2s-.14-1.31-.2-2.05c-.78,1.47-1.53,3-2.23,4.57s-1.42,3.11-2.15,4.63c-.28.61-.56,1.23-.86,1.84s-.58,1.22-.88,1.83a.06.06,0,0,1-.07.05.11.11,0,0,1-.09-.05,26.57,26.57,0,0,1-2.56-4.29c-.71-1.52-1.39-3-2-4.44l-.92-2.05c-.28-.62-.61-1.29-1-2,0,.55-.1,1.08-.16,1.59s-.13,1-.19,1.57c-.17,1.32-.32,2.66-.45,4s-.19,2.74-.19,4.09a1,1,0,0,0,.29.83,2.84,2.84,0,0,0,.72.37l.31.1.33.13a.1.1,0,0,1,.05.12.1.1,0,0,1-.1.07c-.59,0-1.18,0-1.76-.07s-1.19-.07-1.77-.07h-.64c-.22,0-.43,0-.65.06,0,0-.08,0-.1-.07s0-.1.05-.12l.14,0,.17,0a2.92,2.92,0,0,0,.63-.15,1.17,1.17,0,0,0,.52-.47,3.13,3.13,0,0,0,.19-.83c.08-.5.16-1.12.26-1.87s.19-1.61.3-2.57.22-1.94.33-2.94.21-2,.31-3,.19-1.88.28-2.69c.05-.38.09-.76.13-1.13s.08-.72.11-1,.07-.65.11-1l.17,0c.38.69.72,1.32,1,1.88l1.06,2,1.23,2.3,1.22,2.38c.4.79.77,1.53,1.09,2.2.4.83.75,1.63,1.08,2.4s.58,1.35.78,1.74c.44-.91.87-1.83,1.28-2.76s.81-1.86,1.22-2.77c.33-.7.65-1.41,1-2.13s.65-1.42,1-2.13l.27-.56c.08-.19.17-.38.24-.57s.34-.72.58-1.16.48-.88.7-1.3.49-.9.82-1.47l.16.05c0,.38.06.71.09,1s0,.63.09,1,.07.71.11,1.06c.07.78.16,1.65.24,2.59s.18,1.89.29,2.86.2,1.9.31,2.82.22,1.75.33,2.5.22,1.37.33,1.88a2.78,2.78,0,0,0,.31.95,1.61,1.61,0,0,0,.72.63,4.62,4.62,0,0,0,.76.22l.44.09a2.79,2.79,0,0,1,.48.17Z"/><path d="M262.39,477.2a4.26,4.26,0,0,1-.62,0,2.91,2.91,0,0,1-.6-.06l-.5,0-.49,0c-.39,0-.79,0-1.18,0l-1.17.08a1.28,1.28,0,0,1-.29,0,1.14,1.14,0,0,0-.28,0,.07.07,0,0,1-.09-.06.11.11,0,0,1,0-.13l1.27-.59c-.37-1-.76-2-1.15-3s-.78-2-1.15-3h-5c-.11.27-.27.67-.47,1.22s-.41,1.12-.6,1.71-.37,1.15-.52,1.68a5,5,0,0,0-.23,1.16.6.6,0,0,0,.13.38,1,1,0,0,0,.32.25,1.4,1.4,0,0,0,.41.13l.42.06v.19a2.6,2.6,0,0,0-.4,0,2.49,2.49,0,0,1-.4,0l-.8-.07c-.27,0-.54,0-.81,0s-.56,0-.84,0l-.83.07-.5,0-.51,0c-.05,0-.07,0-.08-.08a.09.09,0,0,1,.06-.11,3.59,3.59,0,0,0,1.54-.58,2.79,2.79,0,0,0,.95-1.28c.6-1.49,1.16-3,1.7-4.47l1.6-4.52c.39-1.11.79-2.23,1.21-3.36l1.24-3.35a.09.09,0,0,1,.18,0l.26.69c.1.23.18.47.26.7.43,1.18.87,2.4,1.34,3.65s1,2.51,1.48,3.77,1,2.49,1.57,3.7,1.11,2.39,1.71,3.52a2.53,2.53,0,0,0,1,1.05A3.6,3.6,0,0,0,263,477s.07,0,.07.09,0,.1-.07.1Zm-8.68-14.5c-.08.22-.16.44-.23.65s-.14.42-.2.62c-.31.94-.61,1.86-.88,2.76s-.58,1.8-.91,2.73h4.29Z"/><path d="M285,460.07a.15.15,0,0,0-.09,0l-.46.14a2.75,2.75,0,0,0-.46.18.93.93,0,0,0-.34.28.65.65,0,0,0-.13.41V463c0,.64,0,1.29,0,1.93s0,1.29,0,1.93v1.93c0,1.43,0,2.85-.06,4.27s-.12,2.86-.25,4.3a.09.09,0,0,1-.06.08.07.07,0,0,1-.1,0,73.33,73.33,0,0,1-6.08-5.88q-2.86-3.13-5.65-6.31l-.83-1c-.25-.29-.52-.61-.84-1,0,.3-.06.59-.08.87s0,.57,0,.87c0,.8,0,1.6,0,2.41s.06,1.63.1,2.46.06,1.63.09,2.43.05,1.6.05,2.42a3.93,3.93,0,0,0,.08.95,1.1,1.1,0,0,0,.24.52.78.78,0,0,0,.35.25,4.43,4.43,0,0,0,.43.12,4,4,0,0,1,.55.13,1.84,1.84,0,0,1,.58.31.12.12,0,0,1,0,.11.08.08,0,0,1-.08.06l-.66-.05c-.22,0-.44,0-.66-.07l-.86-.08a8.64,8.64,0,0,0-.88,0c-.4,0-.8,0-1.2.07l-1.23.17s-.06,0-.08-.05a.1.1,0,0,1,0-.12c.16-.12.3-.22.43-.3l.37-.24.4-.22A1.12,1.12,0,0,0,268,476a1.36,1.36,0,0,0,.23-.45,2.64,2.64,0,0,0,.08-.7v-.65c0-.3,0-.66,0-1.06,0-.87,0-1.91,0-3.13s0-2.48,0-3.75c0-.86,0-1.69,0-2.49s0-1.52.05-2.14.05-1.15.09-1.55.1-.63.18-.69.11,0,.14,0q3.48,3.58,6.78,7.12t6.61,7.29v-.19c0-1.95,0-3.9-.07-5.86s-.07-3.9-.07-5.87a2.81,2.81,0,0,0-.12-.92,1.1,1.1,0,0,0-.32-.52,1,1,0,0,0-.43-.23l-.47-.09-.43-.08a.76.76,0,0,1-.37-.18.08.08,0,0,1,0-.11.07.07,0,0,1,.1,0l1.37.15a6.88,6.88,0,0,0,1.36,0l.83-.07.49-.06a1.34,1.34,0,0,1,.49,0h.59l0,.19Z"/><path d="M307.49,477.2a4.39,4.39,0,0,1-.63,0,2.91,2.91,0,0,1-.6-.06l-.49,0-.49,0c-.4,0-.79,0-1.18,0l-1.18.08a1.19,1.19,0,0,1-.28,0,1.09,1.09,0,0,0-.28,0,.08.08,0,0,1-.1-.06.11.11,0,0,1,.05-.13l1.27-.59c-.38-1-.76-2-1.15-3s-.78-2-1.16-3h-5c-.11.27-.26.67-.47,1.22s-.4,1.12-.6,1.71-.37,1.15-.52,1.68a5.47,5.47,0,0,0-.22,1.16.55.55,0,0,0,.13.38.87.87,0,0,0,.32.25,1.31,1.31,0,0,0,.41.13l.41.06v.19a2.5,2.5,0,0,0-.4,0,2.61,2.61,0,0,1-.4,0l-.8-.07c-.27,0-.53,0-.8,0s-.56,0-.85,0l-.82.07-.51,0-.5,0a.07.07,0,0,1-.08-.08.09.09,0,0,1,.05-.11,3.59,3.59,0,0,0,1.55-.58,2.86,2.86,0,0,0,.95-1.28q.9-2.24,1.69-4.47c.54-1.49,1.07-3,1.61-4.52.39-1.11.79-2.23,1.21-3.36s.82-2.25,1.23-3.35a.11.11,0,0,1,.1-.07.1.1,0,0,1,.09.07l.26.69c.09.23.18.47.26.7.42,1.18.87,2.4,1.34,3.65s1,2.51,1.47,3.77,1,2.49,1.58,3.7,1.11,2.39,1.71,3.52a2.45,2.45,0,0,0,1,1.05,3.7,3.7,0,0,0,1.39.39c.05,0,.07,0,.07.09s0,.1-.07.1Zm-8.69-14.5c-.08.22-.15.44-.22.65s-.14.42-.2.62c-.32.94-.61,1.86-.88,2.76s-.58,1.8-.91,2.73h4.28Z"/><path d="M327.73,469.23a1,1,0,0,0-.48,1v5.95s0,0-.05.07a4.83,4.83,0,0,1-1.24.68,6.59,6.59,0,0,1-1.38.39,10.09,10.09,0,0,1-1.44.17l-1.4,0c-.69,0-1.39,0-2.1-.07a8.25,8.25,0,0,1-5.89-3,9.34,9.34,0,0,1-1.61-2.92,10.4,10.4,0,0,1-.57-3.45,8.72,8.72,0,0,1,.75-3.71,7.9,7.9,0,0,1,2.06-2.7,8.9,8.9,0,0,1,3.05-1.65,12.17,12.17,0,0,1,3.72-.55c.71,0,1.42,0,2.13.11l2.11.26.93.14q.45.07.93.12c.06,0,.09,0,.09.1,0,.56-.09,1.11-.16,1.66l-.24,1.63a3.06,3.06,0,0,1-.05.32c0,.1,0,.2,0,.29s0,.08-.09.09a.09.09,0,0,1-.1-.06,4.53,4.53,0,0,0-.68-1.74,4.43,4.43,0,0,0-1.22-1.22,5,5,0,0,0-1.61-.7,7.64,7.64,0,0,0-1.86-.23,8.31,8.31,0,0,0-3,.54,7.52,7.52,0,0,0-2.44,1.52,7.07,7.07,0,0,0-1.63,2.36,7.27,7.27,0,0,0-.6,3,8.73,8.73,0,0,0,.65,3.38,9,9,0,0,0,1.8,2.78,8.61,8.61,0,0,0,2.71,1.88,8.31,8.31,0,0,0,3.38.69,7.87,7.87,0,0,0,1.58-.17,2.69,2.69,0,0,0,1.36-.77v-5.29a.81.81,0,0,0-.35-.77,4.18,4.18,0,0,0-.8-.34,2.78,2.78,0,0,1-.38-.12,1.63,1.63,0,0,1-.37-.19c-.05,0-.07-.06-.05-.1a.09.09,0,0,1,.09-.06l2.79,0c.92,0,1.85.05,2.79.1l0,.19A3.43,3.43,0,0,0,327.73,469.23Z"/><path d="M346.5,475.35l-.18,1.15v0l-.07.57c0,.06,0,.09-.1.09s0,0-.07.05l-.35.07h-1.51l-1.5,0h-4.47c-.51,0-1,0-1.51.05v-.19a1.7,1.7,0,0,0,.82-.22,1.37,1.37,0,0,0,.47-.52,2.32,2.32,0,0,0,.23-.73,5.83,5.83,0,0,0,.06-.84v-13.3a1.37,1.37,0,0,0-.09-.55.83.83,0,0,0-.22-.32.9.9,0,0,0-.32-.17,3.08,3.08,0,0,0-.39-.11,2.64,2.64,0,0,1-.46-.13,2,2,0,0,1-.48-.27s0-.06,0-.09a.08.08,0,0,1,.07-.05h1.44q.76,0,1.86,0l2.07,0,1.47,0q.72,0,1.29,0c.39,0,.72,0,1-.07a1.67,1.67,0,0,0,.55-.12c.1-.06.15,0,.15.07q-.08.66-.21,1.32c-.08.44-.17.86-.27,1.27,0,.08,0,.15,0,.2s0,.12,0,.2a.09.09,0,0,1-.11.06c-.05,0-.08,0-.08-.08a1.73,1.73,0,0,0-.77-1.52,3.75,3.75,0,0,0-1.75-.37h-2.52v6.67h3.7a1.09,1.09,0,0,0,.41-.11l.51-.22a3,3,0,0,1,.37-.17l.38-.12c.08,0,.12,0,.12.1s-.06.5-.1.75-.06.5-.09.73-.09.62-.13.91-.07.58-.1.88a.08.08,0,0,1-.06.09.09.09,0,0,1-.11,0,1,1,0,0,1-.19-.29c-.05-.12-.08-.24-.12-.37s-.07-.25-.11-.38a1.2,1.2,0,0,0-.26-.37,1.08,1.08,0,0,0-.58-.26,6.46,6.46,0,0,0-.94-.13c-.34,0-.67,0-1,0h-1.67v6.55a2.39,2.39,0,0,0,.59.68,3.32,3.32,0,0,0,.76.47,3.76,3.76,0,0,0,.86.28,3.81,3.81,0,0,0,.87.1,3.19,3.19,0,0,0,1.92-.59,2.77,2.77,0,0,0,1.07-1.67l.17,0C346.62,474.59,346.55,475,346.5,475.35Z"/><path d="M375.08,477.25h-2.54c-.85,0-1.7,0-2.54-.06-.1,0-.13,0-.1-.12l.05-.14c0-.05,0-.1.05-.14s.12-.38.19-.56a1.64,1.64,0,0,0,.09-.53c0-1.19-.06-2.42-.18-3.68s-.24-2.48-.38-3.66v0c-.1-.73-.18-1.42-.25-2s-.14-1.31-.2-2.05c-.79,1.47-1.53,3-2.24,4.57s-1.42,3.11-2.14,4.63c-.28.61-.57,1.23-.86,1.84s-.58,1.22-.88,1.83c0,0,0,.05-.07.05a.12.12,0,0,1-.1-.05,25.81,25.81,0,0,1-2.55-4.29c-.71-1.52-1.39-3-2-4.44l-.91-2.05c-.29-.62-.62-1.29-1-2-.05.55-.11,1.08-.17,1.59s-.12,1-.19,1.57c-.17,1.32-.32,2.66-.44,4s-.19,2.74-.19,4.09c0,.42.09.7.28.83a2.92,2.92,0,0,0,.73.37l.31.1.33.13a.1.1,0,0,1,0,.12.08.08,0,0,1-.09.07c-.6,0-1.19,0-1.77-.07s-1.18-.07-1.76-.07h-.65l-.65.06s-.08,0-.09-.07a.09.09,0,0,1,.05-.12l.14,0,.16,0a3,3,0,0,0,.64-.15,1.22,1.22,0,0,0,.52-.47,3.35,3.35,0,0,0,.18-.83c.08-.5.17-1.12.26-1.87s.2-1.61.31-2.57.22-1.94.33-2.94.21-2,.3-3,.19-1.88.29-2.69c0-.38.09-.76.13-1.13s.07-.72.1-1,.07-.65.12-1l.17,0c.37.69.71,1.32,1,1.88l1.06,2c.4.74.81,1.51,1.22,2.3s.83,1.59,1.23,2.38.76,1.53,1.09,2.2c.39.83.75,1.63,1.07,2.4s.59,1.35.79,1.74c.44-.91.86-1.83,1.27-2.76l1.22-2.77c.33-.7.66-1.41,1-2.13s.66-1.42,1-2.13c.1-.19.19-.37.27-.56s.17-.38.25-.57a11.32,11.32,0,0,1,.58-1.16l.69-1.3c.22-.41.5-.9.82-1.47l.17.05c0,.38.06.71.08,1s.06.63.1,1,.07.71.1,1.06c.08.78.16,1.65.25,2.59s.18,1.89.28,2.86.21,1.9.32,2.82.22,1.75.33,2.5.22,1.37.33,1.88a3.11,3.11,0,0,0,.3.95,1.61,1.61,0,0,0,.72.63,4.72,4.72,0,0,0,.77.22l.43.09a3.2,3.2,0,0,1,.49.17Z"/><path d="M390.75,475.35l-.18,1.15v0l-.07.57a.08.08,0,0,1-.09.09s0,0-.08.05l-.35.07h-1.5c-.51,0-1,0-1.51,0H382.5c-.51,0-1,0-1.51.05v-.19a1.67,1.67,0,0,0,.82-.22,1.4,1.4,0,0,0,.48-.52,2.31,2.31,0,0,0,.22-.73,5.83,5.83,0,0,0,.06-.84v-13.3a1.6,1.6,0,0,0-.08-.55.85.85,0,0,0-.23-.32.9.9,0,0,0-.32-.17,2.9,2.9,0,0,0-.38-.11,2.42,2.42,0,0,1-.46-.13,1.87,1.87,0,0,1-.49-.27.08.08,0,0,1,0-.09s0-.05.07-.05h1.44c.52,0,1.13,0,1.86,0l2.07,0,1.47,0q.72,0,1.29,0c.39,0,.72,0,1-.07a1.67,1.67,0,0,0,.55-.12c.1-.06.15,0,.15.07-.05.44-.12.88-.2,1.32s-.18.86-.27,1.27l-.05.2c0,.06,0,.12,0,.2a.08.08,0,0,1-.1.06c-.06,0-.09,0-.09-.08a1.73,1.73,0,0,0-.77-1.52,3.74,3.74,0,0,0-1.74-.37h-2.52v6.67h3.69a1.09,1.09,0,0,0,.41-.11l.51-.22a3.17,3.17,0,0,1,.38-.17c.12-.05.25-.08.37-.12s.12,0,.12.1l-.09.75c0,.25-.07.5-.1.73s-.09.62-.13.91-.07.58-.1.88a.08.08,0,0,1-.06.09.09.09,0,0,1-.11,0,1,1,0,0,1-.19-.29c0-.12-.08-.24-.11-.37s-.07-.25-.12-.38a1.2,1.2,0,0,0-.26-.37,1,1,0,0,0-.58-.26,6.46,6.46,0,0,0-.94-.13c-.34,0-.67,0-1,0h-1.67v6.55a2.56,2.56,0,0,0,.59.68,3.32,3.32,0,0,0,.76.47,3.76,3.76,0,0,0,.86.28,3.81,3.81,0,0,0,.87.1,3.19,3.19,0,0,0,1.92-.59,2.77,2.77,0,0,0,1.07-1.67l.17,0C390.87,474.59,390.8,475,390.75,475.35Z"/><path d="M415,460.07a.15.15,0,0,0-.09,0l-.46.14a3.14,3.14,0,0,0-.46.18.93.93,0,0,0-.34.28.65.65,0,0,0-.13.41V463c0,.64,0,1.29,0,1.93s0,1.29,0,1.93v1.93c0,1.43,0,2.85-.06,4.27s-.12,2.86-.25,4.3a.09.09,0,0,1-.06.08.07.07,0,0,1-.1,0,73.33,73.33,0,0,1-6.08-5.88q-2.87-3.13-5.65-6.31l-.83-1c-.24-.29-.52-.61-.84-1,0,.3-.06.59-.08.87s0,.57,0,.87c0,.8,0,1.6,0,2.41s.07,1.63.1,2.46.06,1.63.09,2.43.05,1.6.05,2.42a4.52,4.52,0,0,0,.08.95,1.2,1.2,0,0,0,.24.52.84.84,0,0,0,.35.25,4.43,4.43,0,0,0,.43.12,4,4,0,0,1,.55.13,1.84,1.84,0,0,1,.58.31.1.1,0,0,1,0,.11.08.08,0,0,1-.08.06l-.66-.05c-.22,0-.44,0-.66-.07l-.86-.08a8.51,8.51,0,0,0-.88,0c-.39,0-.8,0-1.2.07l-1.23.17s-.06,0-.08-.05a.1.1,0,0,1,0-.12c.16-.12.3-.22.43-.3l.37-.24.4-.22A1.12,1.12,0,0,0,398,476a1.36,1.36,0,0,0,.23-.45,2.64,2.64,0,0,0,.08-.7v-.65c0-.3,0-.66,0-1.06,0-.87,0-1.91,0-3.13s0-2.48,0-3.75c0-.86,0-1.69,0-2.49s0-1.52,0-2.14.05-1.15.09-1.55.1-.63.18-.69.11,0,.14,0q3.48,3.58,6.78,7.12t6.61,7.29v-.19c0-1.95,0-3.9-.07-5.86s-.07-3.9-.07-5.87a2.81,2.81,0,0,0-.12-.92,1.18,1.18,0,0,0-.31-.52,1,1,0,0,0-.44-.23l-.47-.09-.42-.08a.75.75,0,0,1-.38-.18.08.08,0,0,1,.09-.14l1.37.15a6.88,6.88,0,0,0,1.36,0l.83-.07.49-.06a1.4,1.4,0,0,1,.5,0H415l0,.19A.19.19,0,0,1,415,460.07Z"/><path d="M435,461.42a5.17,5.17,0,0,1-.21,1.42.08.08,0,0,1-.09.07.1.1,0,0,1-.1-.07,2.52,2.52,0,0,0-.36-.95,1.91,1.91,0,0,0-.62-.58,2.67,2.67,0,0,0-.85-.29,5.37,5.37,0,0,0-1-.08H429v13.74a2.29,2.29,0,0,0,.6,1.6,2.47,2.47,0,0,0,1.5.8.09.09,0,0,1,.05.11.07.07,0,0,1-.08.08c-.55,0-1.1-.08-1.66-.12s-1.11,0-1.68,0c-.41,0-.81,0-1.21,0l-1.21.08a.08.08,0,0,1-.09-.08.09.09,0,0,1,.06-.1,5.19,5.19,0,0,0,.89-.26,1.13,1.13,0,0,0,.47-.38,1.33,1.33,0,0,0,.18-.6,7.93,7.93,0,0,0,0-.93V461h-3.88a1.9,1.9,0,0,0-1.33.53,3.26,3.26,0,0,0-.86,1.19c0,.05-.07.07-.11.06a.08.08,0,0,1-.06-.09,2.18,2.18,0,0,1-.05-.42,3.57,3.57,0,0,1,.12-.92l.26-.92c.05-.15.1-.3.14-.45a4.16,4.16,0,0,0,.12-.44c0-.09.08-.11.14-.05a2.54,2.54,0,0,0,1,.39,5.8,5.8,0,0,0,1.08.08h10.22a2.17,2.17,0,0,0,.41-.05l.41-.11.27-.05.32,0s.07,0,.07.09V460Q435.05,460.63,435,461.42Z"/><path d="M90.78,415.76v12.06h-1a12.81,12.81,0,0,0-4.21-7.24,10.76,10.76,0,0,0-7-2.51,10.33,10.33,0,0,0-6,1.87,11,11,0,0,0-4,4.91A22.29,22.29,0,0,0,67,433.47,28.79,28.79,0,0,0,68.2,442a11.3,11.3,0,0,0,3.69,5.8,10.29,10.29,0,0,0,6.52,2,12.71,12.71,0,0,0,6-1.44,20.59,20.59,0,0,0,5.76-4.95v3a18.89,18.89,0,0,1-6.09,4.43,18.45,18.45,0,0,1-7.41,1.37,21.22,21.22,0,0,1-9.89-2.23,15.8,15.8,0,0,1-6.68-6.42,17.91,17.91,0,0,1-2.34-8.9,19,19,0,0,1,9.63-16.38,19.11,19.11,0,0,1,9.41-2.46,21.34,21.34,0,0,1,7.75,1.59,11.72,11.72,0,0,0,3,.92,2,2,0,0,0,1.42-.6,3.29,3.29,0,0,0,.78-1.91Z" fill="#1f273e"/><path d="M119.71,435.5v9.75a10.7,10.7,0,0,0,.35,3.55,2.49,2.49,0,0,0,1.22,1.17,8.18,8.18,0,0,0,3.26.44v.95H106.72v-.95A8,8,0,0,0,110,450a2.62,2.62,0,0,0,1.2-1.17,10.63,10.63,0,0,0,.35-3.54V422.66a10.74,10.74,0,0,0-.35-3.55,2.53,2.53,0,0,0-1.22-1.17,8.21,8.21,0,0,0-3.26-.44v-.94h16.17a35.39,35.39,0,0,1,9.24.87,9.32,9.32,0,0,1,4.78,3.22,8.63,8.63,0,0,1,1.84,5.5,8.22,8.22,0,0,1-2.77,6.37,11.46,11.46,0,0,1-4.95,2.39l8.37,11.78a18.05,18.05,0,0,0,2.33,2.85,4.35,4.35,0,0,0,2.44.87v.95h-11L122,435.5Zm0-17.07v15.24h1.46a16.28,16.28,0,0,0,5.34-.65,5.35,5.35,0,0,0,2.79-2.36,8.7,8.7,0,0,0,1-4.45q0-4-1.86-5.88t-6-1.9Z" fill="#1f273e"/><path d="M170.12,418.56v14.16h.69a5.5,5.5,0,0,0,4.8-2.07,12.79,12.79,0,0,0,1.9-6.14h1v18.22h-1a13.68,13.68,0,0,0-1.29-4.87,5.63,5.63,0,0,0-2.3-2.56,8.83,8.83,0,0,0-3.8-.65v9.8a14.39,14.39,0,0,0,.24,3.52,2.14,2.14,0,0,0,.91,1,4.25,4.25,0,0,0,2.16.41h2.08a12.48,12.48,0,0,0,7.82-2.26,12.61,12.61,0,0,0,4.22-6.87h.95l-1.57,11.06H156.85v-.95H158a4.78,4.78,0,0,0,2.43-.54,2.33,2.33,0,0,0,1-1.23,10.57,10.57,0,0,0,.28-3.24V422.51a17.64,17.64,0,0,0-.13-2.9,2.44,2.44,0,0,0-1-1.39,4.4,4.4,0,0,0-2.66-.72h-1.16v-.94H186v10.29h-1a12.59,12.59,0,0,0-2.1-5.42A7.7,7.7,0,0,0,179.1,419a20.56,20.56,0,0,0-5.39-.46Z" fill="#1f273e"/><path d="M203.64,451.36v-.95h1.16a4.59,4.59,0,0,0,2.32-.48,2.8,2.8,0,0,0,1.19-1.29,12.05,12.05,0,0,0,.23-3.24V422.51a11.46,11.46,0,0,0-.28-3.34,2.58,2.58,0,0,0-1.14-1.16,4.53,4.53,0,0,0-2.32-.51h-1.16v-.94h15.58a25,25,0,0,1,10,1.69,14.86,14.86,0,0,1,7,6.29,20,20,0,0,1,1.22,16.28,15.56,15.56,0,0,1-3.05,5.11,14.91,14.91,0,0,1-4.33,3.23,22.6,22.6,0,0,1-6,1.89,27.76,27.76,0,0,1-4.93.31Zm13.27-32.83v27.16a9.34,9.34,0,0,0,.21,2.64,1.38,1.38,0,0,0,.69.74,4.14,4.14,0,0,0,2,.39,7.79,7.79,0,0,0,6.55-2.93q3.07-3.94,3.08-12.27,0-6.69-2.11-10.7A8.92,8.92,0,0,0,223,419.3,16.54,16.54,0,0,0,216.91,418.53Z" fill="#1f273e"/><path d="M267.32,418.56v14.16H268a5.5,5.5,0,0,0,4.8-2.07,12.79,12.79,0,0,0,1.9-6.14h1v18.22h-1a13.68,13.68,0,0,0-1.29-4.87,5.63,5.63,0,0,0-2.3-2.56,8.83,8.83,0,0,0-3.8-.65v9.8a14.39,14.39,0,0,0,.24,3.52,2.14,2.14,0,0,0,.91,1,4.25,4.25,0,0,0,2.16.41h2.08a12.48,12.48,0,0,0,7.82-2.26,12.61,12.61,0,0,0,4.22-6.87h.95l-1.57,11.06H254.05v-.95h1.16a4.78,4.78,0,0,0,2.43-.54,2.33,2.33,0,0,0,1-1.23,10.57,10.57,0,0,0,.28-3.24V422.51a17.64,17.64,0,0,0-.13-2.9,2.44,2.44,0,0,0-.95-1.39,4.4,4.4,0,0,0-2.66-.72h-1.16v-.94h29.13v10.29h-1a12.59,12.59,0,0,0-2.1-5.42A7.7,7.7,0,0,0,276.3,419a20.56,20.56,0,0,0-5.39-.46Z" fill="#1f273e"/><path d="M313.24,416.56l17.17,21.58v-15c0-2.09-.3-3.5-.9-4.24-.82-1-2.2-1.47-4.13-1.44v-.94h11.5v.94a8.83,8.83,0,0,0-3,.74,2.93,2.93,0,0,0-1.18,1.46,10.06,10.06,0,0,0-.42,3.48v29h-.87l-23.54-29V445.3c0,2,.46,3.36,1.37,4.06a5.06,5.06,0,0,0,3.15,1.05h.82v.95H300.89v-.95c1.92,0,3.25-.41,4-1.18A5.54,5.54,0,0,0,306,445.3V420.74l-.75-.93a6.66,6.66,0,0,0-1.95-1.82,6,6,0,0,0-2.44-.49v-.94Z" fill="#1f273e"/><path d="M385.28,415.76v12.06h-1a12.81,12.81,0,0,0-4.21-7.24,10.76,10.76,0,0,0-7-2.51,10.33,10.33,0,0,0-6,1.87,11,11,0,0,0-4,4.91,22.29,22.29,0,0,0-1.61,8.62A28.79,28.79,0,0,0,362.7,442a11.3,11.3,0,0,0,3.69,5.8,10.29,10.29,0,0,0,6.52,2,12.71,12.71,0,0,0,6-1.44,20.59,20.59,0,0,0,5.76-4.95v3a18.89,18.89,0,0,1-6.09,4.43,18.45,18.45,0,0,1-7.41,1.37,21.22,21.22,0,0,1-9.89-2.23,15.77,15.77,0,0,1-6.67-6.42,17.82,17.82,0,0,1-2.35-8.9,19,19,0,0,1,9.64-16.38,19,19,0,0,1,9.4-2.46,21.34,21.34,0,0,1,7.75,1.59,11.72,11.72,0,0,0,3,.92,2,2,0,0,0,1.42-.6,3.29,3.29,0,0,0,.78-1.91Z" fill="#1f273e"/><path d="M414.57,418.56v14.16h.69a5.5,5.5,0,0,0,4.8-2.07,12.68,12.68,0,0,0,1.9-6.14h1v18.22h-1a13.47,13.47,0,0,0-1.29-4.87,5.63,5.63,0,0,0-2.3-2.56,8.83,8.83,0,0,0-3.8-.65v9.8a14.39,14.39,0,0,0,.24,3.52,2.11,2.11,0,0,0,.92,1,4.18,4.18,0,0,0,2.15.41H420a12.48,12.48,0,0,0,7.82-2.26A12.61,12.61,0,0,0,432,440.3H433l-1.57,11.06H401.3v-.95h1.16a4.76,4.76,0,0,0,2.43-.54,2.33,2.33,0,0,0,1-1.23,10.57,10.57,0,0,0,.28-3.24V422.51a19.54,19.54,0,0,0-.12-2.9,2.53,2.53,0,0,0-.95-1.39,4.41,4.41,0,0,0-2.67-.72H401.3v-.94h29.13v10.29h-1a12.73,12.73,0,0,0-2.09-5.42,7.78,7.78,0,0,0-3.82-2.41,20.51,20.51,0,0,0-5.39-.46Z" fill="#1f273e"/></svg>